<?xml version="1.0" standalone="no"?>
<!DOCTYPE svg PUBLIC "-//W3C//DTD SVG 20010904//EN"
 "http://www.w3.org/TR/2001/REC-SVG-20010904/DTD/svg10.dtd">
<svg version="1.0" xmlns="http://www.w3.org/2000/svg"
 width="260.000000pt" height="260.000000pt" viewBox="0 0 260.000000 260.000000"
 preserveAspectRatio="xMidYMid meet">
<metadata>
Created by potrace 1.11, written by Peter Selinger 2001-2013
</metadata>
<g transform="translate(0.000000,260.000000) scale(0.100000,-0.100000)"
fill="#000000" stroke="none">
<path d="M0 1300 l0 -1300 1300 0 1300 0 0 1300 0 1300 -1300 0 -1300 0 0
-1300z m754 536 c26 -20 30 -31 32 -77 4 -94 -11 -112 -101 -122 -11 -1 -25
-5 -31 -9 -8 -6 -11 6 -9 37 2 25 0 45 -4 45 -12 0 -30 -22 -27 -34 2 -6 1 -8
-1 -3 -3 4 -11 7 -19 7 -8 0 -14 9 -14 21 0 11 5 17 10 14 18 -11 11 11 -9 29
-17 16 -18 20 -5 44 8 15 14 32 14 38 0 12 89 12 109 -1 10 -5 11 -2 6 14 -9
28 12 27 49 -3z m1022 -398 c62 -52 72 -81 24 -71 -19 3 -30 1 -30 -6 0 -6 4
-11 10 -11 5 0 12 -11 16 -24 3 -13 15 -26 26 -29 25 -7 19 -27 -10 -38 -20
-8 -26 -3 -50 36 -31 52 -57 61 -47 16 8 -37 -7 -47 -30 -21 -15 16 -16 25 -7
44 9 20 8 23 -6 22 -11 -1 -17 9 -19 31 -3 37 6 45 62 54 22 4 41 7 43 8 2 0
10 -5 18 -11z m-570 -38 c8 -8 19 -7 36 0 20 10 31 9 57 -4 33 -17 39 -42 21
-77 -9 -16 -15 -17 -31 -8 -12 6 -23 8 -27 5 -3 -3 0 -6 7 -6 14 0 11 -31 -4
-42 -5 -4 -20 2 -32 14 -35 33 -62 -4 -29 -41 9 -11 11 -23 5 -38 -11 -30 -18
-29 -58 12 -26 27 -32 38 -23 47 15 15 15 45 1 50 -18 6 -1 86 19 91 31 8 48
7 58 -3z m142 -141 c2 -12 -54 -59 -71 -59 -4 0 -7 9 -7 20 0 15 7 20 26 20
18 0 25 4 21 14 -3 8 -3 17 1 20 9 10 27 1 30 -15z m-58 -429 c26 -13 40 -27
40 -40 0 -11 -5 -20 -11 -20 -7 0 -10 -12 -7 -30 3 -21 1 -27 -6 -20 -5 5 -18
10 -27 10 -21 0 -33 -50 -13 -56 51 -15 50 -14 20 -39 -16 -13 -44 -26 -63
-30 -28 -5 -38 -1 -62 22 -23 24 -48 83 -34 83 13 0 63 -32 63 -40 0 -6 7 -10
15 -10 18 0 19 14 3 39 -6 10 -18 17 -27 14 -19 -4 -41 38 -41 79 0 25 4 28
40 34 22 4 43 11 46 15 8 13 21 11 64 -11z"/>
</g>
</svg>
